<?xml version="1.0" encoding="UTF-8" standalone="no"?><svg xmlns="http://www.w3.org/2000/svg" xmlns:xlink="http://www.w3.org/1999/xlink" contentStyleType="text/css" height="276px" preserveAspectRatio="none" style="width:432px;height:276px;background:#FFFFFF;" version="1.1" viewBox="0 0 432 276" width="432px" zoomAndPan="magnify"><defs/><g><!--MD5=[597b1f9a76f6f35794bf3e1b353f9ed5]
cluster Acteurs principaux--><g id="cluster_Acteurs principaux"><rect fill="none" height="263" rx="2.5" ry="2.5" style="stroke:#181818;stroke-width:1.0;" width="233" x="7" y="7"/><text fill="#000000" font-family="sans-serif" font-size="14" font-weight="bold" lengthAdjust="spacing" textLength="149" x="49" y="21.9951">Acteurs principaux</text></g><!--MD5=[927bc5e52570a5ead7a0087d44333c1c]
cluster Acteurs potentiels--><g id="cluster_Acteurs potentiels"><rect fill="none" height="127" rx="2.5" ry="2.5" style="stroke:#181818;stroke-width:1.0;" width="162" x="264" y="7"/><text fill="#000000" font-family="sans-serif" font-size="14" font-weight="bold" lengthAdjust="spacing" textLength="146" x="272" y="21.9951">Acteurs potentiels</text></g><!--MD5=[a2a1127a9e0c3d5a4af797120761d109]
entity ad--><g id="elem_ad"><ellipse cx="51" cy="50.5" fill="#F1F1F1" rx="8" ry="8" style="stroke:#181818;stroke-width:0.5;"/><path d="M51,58.5 L51,85.5 M38,66.5 L64,66.5 M51,85.5 L38,100.5 M51,85.5 L64,100.5 " fill="none" style="stroke:#181818;stroke-width:0.5;"/><text fill="#000000" font-family="sans-serif" font-size="14" lengthAdjust="spacing" textLength="42" x="30" y="114.9951">admin</text></g><!--MD5=[f26b11eb8de3600b24c56d19a52b3c65]
entity prop--><g id="elem_prop"><ellipse cx="142" cy="50.5" fill="#F1F1F1" rx="8" ry="8" style="stroke:#181818;stroke-width:0.5;"/><path d="M142,58.5 L142,85.5 M129,66.5 L155,66.5 M142,85.5 L129,100.5 M142,85.5 L155,100.5 " fill="none" style="stroke:#181818;stroke-width:0.5;"/><text fill="#000000" font-family="sans-serif" font-size="14" lengthAdjust="spacing" textLength="70" x="107" y="114.9951">proprietair</text></g><!--MD5=[304f583f0b15969b823fd55ea2d05389]
entity hab--><g id="elem_hab"><ellipse cx="51" cy="186.5" fill="#F1F1F1" rx="8" ry="8" style="stroke:#181818;stroke-width:0.5;"/><path d="M51,194.5 L51,221.5 M38,202.5 L64,202.5 M51,221.5 L38,236.5 M51,221.5 L64,236.5 " fill="none" style="stroke:#181818;stroke-width:0.5;"/><text fill="#000000" font-family="sans-serif" font-size="14" lengthAdjust="spacing" textLength="56" x="23" y="250.9951">habitant</text></g><!--MD5=[c38e6713c6fc97f85fa64829d8e1320f]
entity oc--><g id="elem_oc"><ellipse cx="169" cy="186.5" fill="#F1F1F1" rx="8" ry="8" style="stroke:#181818;stroke-width:0.5;"/><path d="M169,194.5 L169,221.5 M156,202.5 L182,202.5 M169,221.5 L156,236.5 M169,221.5 L182,236.5 " fill="none" style="stroke:#181818;stroke-width:0.5;"/><text fill="#000000" font-family="sans-serif" font-size="14" lengthAdjust="spacing" textLength="110" x="114" y="250.9951">objet connecter</text></g><!--MD5=[d4c4ca0c6539aad8b80246bd3465f857]
entity ads--><g id="elem_ads"><ellipse cx="345" cy="50.5" fill="#F1F1F1" rx="8" ry="8" style="stroke:#181818;stroke-width:0.5;"/><path d="M345,58.5 L345,85.5 M332,66.5 L358,66.5 M345,85.5 L332,100.5 M345,85.5 L358,100.5 " fill="none" style="stroke:#181818;stroke-width:0.5;"/><text fill="#000000" font-family="sans-serif" font-size="14" lengthAdjust="spacing" textLength="122" x="284" y="114.9951">agent de sécurité</text></g><!--MD5=[c99b848aad64d9af0d9de87fff175306]
@startuml
    rectangle "Acteurs principaux" {
        actor admin as ad
        actor proprietair as prop
        actor habitant as hab
        actor "objet connecter" as oc
    }
    rectangle "Acteurs potentiels"{
        actor "agent de sécurité" as ads 
    }
@enduml

PlantUML version 1.2022.7(Mon Aug 22 18:01:30 CET 2022)
(GPL source distribution)
Java Runtime: OpenJDK Runtime Environment
JVM: OpenJDK 64-Bit Server VM
Default Encoding: UTF-8
Language: en
Country: US
--></g></svg>