<?xml version="1.0" encoding="UTF-8" standalone="no"?><svg xmlns="http://www.w3.org/2000/svg" xmlns:xlink="http://www.w3.org/1999/xlink" contentStyleType="text/css" height="512px" preserveAspectRatio="none" style="width:942px;height:512px;background:#FFFFFF;" version="1.1" viewBox="0 0 942 512" width="942px" zoomAndPan="magnify"><defs/><g><!--MD5=[de5e3ac9c47e5be61e90a04a80699c61]
cluster h--><g id="cluster_h"><rect fill="none" height="349" rx="2.5" ry="2.5" style="stroke:#181818;stroke-width:1.0;" width="394" x="542" y="7"/><text fill="#000000" font-family="sans-serif" font-size="14" font-weight="bold" lengthAdjust="spacing" textLength="40" x="719" y="23.5332">Home</text></g><!--MD5=[2908e47dfa3d82cbdce4ded0838fdac2]
cluster Cloud--><g id="cluster_Cloud"><path d="M797.0751,389.6372 C799.5376,383.3237 803.4111,381.4136 808.7442,386.7659 C812.2445,379.9052 818.278,380.9351 821.8918,386.6473 C824.0895,380.6341 828.35,380.2522 832.9921,383.8132 C836.1911,376.3635 841.9833,375.7228 846.5462,382.5151 C851.0676,378.2589 855.8326,378.1548 858.545,384.5524 C863.0772,378.8399 868.159,379.5322 870.634,386.5119 C874.0957,381.5136 878.2709,381.3643 881.0379,387.1803 C886.0304,381.0049 891.375,382.6943 893.9951,389.5409 C899.7527,393.6422 901.4857,398.0024 894.7622,402.8245 C901.3436,406.8053 900.9762,413.5465 894.0272,416.8167 C900.4522,420.8168 901.8865,426.8465 894.3808,431.1893 C900.0082,435.2038 901.2587,439.5908 895.3453,444.445 C903.5521,449.6668 901.8555,456.5167 893.8409,460.1885 C901.3792,463.8657 900.4207,470.7792 893.5808,474.1893 C889.96,480.1616 884.986,478.5773 881.8521,473.6646 C879.4959,480.4287 873.1706,481.7068 868.9476,475.5256 C865.8424,480.8139 862.0419,480.9686 858.5012,475.9677 C854.4884,482.3674 849.5753,483.3837 844.7899,476.7824 C841.3167,481.592 836.4352,482.0673 833.0296,476.7042 C828.1465,482.7191 823.3961,481.2764 820.4338,474.7716 C816.413,479.4218 813.1513,478.644 809.8308,473.9749 C805.9703,479.1869 799.8172,479.1825 797.6805,472.2503 C790.4975,469.4816 788.7227,464.3019 794.7194,458.6614 C786.7507,454.416 787.65,449.2465 793.782,444.0937 C786.8311,440.2743 786.3367,434.8606 793.527,430.7706 C787.4924,426.2959 786.8676,421.087 793.5915,416.6707 C787.0728,411.0961 788.9154,405.1321 796.5305,402.4859 C791.1775,398.7297 790.3867,392.8832 797.0751,389.6372 " fill="none" style="stroke:#181818;stroke-width:1.0;"/><text fill="#000000" font-family="sans-serif" font-size="14" font-weight="bold" lengthAdjust="spacing" textLength="41" x="824" y="407.5332">Cloud</text></g><!--MD5=[dd1dba2181b62d7a6b9501e057c2fe75]
cluster admin--><g id="cluster_admin"><rect fill="none" height="457" rx="2.5" ry="2.5" style="stroke:#181818;stroke-width:1.0;" width="338" x="7" y="49"/><text fill="#000000" font-family="sans-serif" font-size="14" font-weight="bold" lengthAdjust="spacing" textLength="322" x="15" y="65.5332">Admin,Agent de securité,Propriétaire,Habitant</text></g><!--MD5=[6118a253825004b970537196b4eb8e8f]
cluster ordinateur--><g id="cluster_ordinateur"><polygon fill="none" points="81,111,91,101,271,101,271,294,261,304,81,304,81,111" style="stroke:#181818;stroke-width:1.0;"/><line style="stroke:#181818;stroke-width:1.0;" x1="261" x2="271" y1="111" y2="101"/><line style="stroke:#181818;stroke-width:1.0;" x1="81" x2="261" y1="111" y2="111"/><line style="stroke:#181818;stroke-width:1.0;" x1="261" x2="261" y1="111" y2="304"/><text fill="#000000" font-family="sans-serif" font-size="14" font-weight="bold" lengthAdjust="spacing" textLength="74" x="135" y="128.5332">ordinateur</text></g><!--MD5=[5c9428882468fe1331693bb0d5056948]
cluster Smartphone--><g id="cluster_Smartphone"><polygon fill="none" points="96,354,106,344,257,344,257,464,247,474,96,474,96,354" style="stroke:#181818;stroke-width:1.0;"/><line style="stroke:#181818;stroke-width:1.0;" x1="247" x2="257" y1="354" y2="344"/><line style="stroke:#181818;stroke-width:1.0;" x1="96" x2="247" y1="354" y2="354"/><line style="stroke:#181818;stroke-width:1.0;" x1="247" x2="247" y1="354" y2="474"/><text fill="#000000" font-family="sans-serif" font-size="14" font-weight="bold" lengthAdjust="spacing" textLength="85" x="130" y="371.5332">Smartphone</text></g><!--MD5=[7342edd9a184d8607391f4c130efbf01]
entity router--><g id="elem_router"><polygon fill="#F1F1F1" points="592,302,602,292,675,292,675,329.6094,665,339.6094,592,339.6094,592,302" style="stroke:#181818;stroke-width:0.5;"/><line style="stroke:#181818;stroke-width:0.5;" x1="665" x2="675" y1="302" y2="292"/><line style="stroke:#181818;stroke-width:0.5;" x1="592" x2="665" y1="302" y2="302"/><line style="stroke:#181818;stroke-width:0.5;" x1="665" x2="665" y1="302" y2="339.6094"/><text fill="#000000" font-family="sans-serif" font-size="14" lengthAdjust="spacing" textLength="43" x="607" y="326.5332">Router</text></g><!--MD5=[825d2025aafef260e6ddb97833c1a604]
entity Objet Connecté 1--><g id="elem_Objet Connecté 1"><polygon fill="#F1F1F1" points="558,219,568,209,709,209,709,246.6094,699,256.6094,558,256.6094,558,219" style="stroke:#181818;stroke-width:0.5;"/><line style="stroke:#181818;stroke-width:0.5;" x1="699" x2="709" y1="219" y2="209"/><line style="stroke:#181818;stroke-width:0.5;" x1="558" x2="699" y1="219" y2="219"/><line style="stroke:#181818;stroke-width:0.5;" x1="699" x2="699" y1="219" y2="256.6094"/><text fill="#000000" font-family="sans-serif" font-size="14" lengthAdjust="spacing" textLength="111" x="573" y="243.5332">Objet Connecté 1</text></g><!--MD5=[3469ec16037cc56f488e33e9222277be]
entity Objet Connecté 2--><g id="elem_Objet Connecté 2"><polygon fill="#F1F1F1" points="558,136,568,126,709,126,709,163.6094,699,173.6094,558,173.6094,558,136" style="stroke:#181818;stroke-width:0.5;"/><line style="stroke:#181818;stroke-width:0.5;" x1="699" x2="709" y1="136" y2="126"/><line style="stroke:#181818;stroke-width:0.5;" x1="558" x2="699" y1="136" y2="136"/><line style="stroke:#181818;stroke-width:0.5;" x1="699" x2="699" y1="136" y2="173.6094"/><text fill="#000000" font-family="sans-serif" font-size="14" lengthAdjust="spacing" textLength="111" x="573" y="160.5332">Objet Connecté 2</text></g><!--MD5=[6c98ccda23235522612f1989eb49bfdf]
entity Objet Connecté 3--><g id="elem_Objet Connecté 3"><polygon fill="#F1F1F1" points="558,53,568,43,709,43,709,80.6094,699,90.6094,558,90.6094,558,53" style="stroke:#181818;stroke-width:0.5;"/><line style="stroke:#181818;stroke-width:0.5;" x1="699" x2="709" y1="53" y2="43"/><line style="stroke:#181818;stroke-width:0.5;" x1="558" x2="699" y1="53" y2="53"/><line style="stroke:#181818;stroke-width:0.5;" x1="699" x2="699" y1="53" y2="90.6094"/><text fill="#000000" font-family="sans-serif" font-size="14" lengthAdjust="spacing" textLength="111" x="573" y="77.5332">Objet Connecté 3</text></g><!--MD5=[926fe874bebb0113d5e5b318fc1078b2]
entity Objet Connecté 4--><g id="elem_Objet Connecté 4"><polygon fill="#F1F1F1" points="769,219,779,209,920,209,920,246.6094,910,256.6094,769,256.6094,769,219" style="stroke:#181818;stroke-width:0.5;"/><line style="stroke:#181818;stroke-width:0.5;" x1="910" x2="920" y1="219" y2="209"/><line style="stroke:#181818;stroke-width:0.5;" x1="769" x2="910" y1="219" y2="219"/><line style="stroke:#181818;stroke-width:0.5;" x1="910" x2="910" y1="219" y2="256.6094"/><text fill="#000000" font-family="sans-serif" font-size="14" lengthAdjust="spacing" textLength="111" x="784" y="243.5332">Objet Connecté 4</text></g><!--MD5=[a958f4445afa9744a0c006f456a9f383]
entity Objet Connecté n--><g id="elem_Objet Connecté n"><polygon fill="#F1F1F1" points="769,136,779,126,920,126,920,163.6094,910,173.6094,769,173.6094,769,136" style="stroke:#181818;stroke-width:0.5;"/><line style="stroke:#181818;stroke-width:0.5;" x1="910" x2="920" y1="136" y2="126"/><line style="stroke:#181818;stroke-width:0.5;" x1="769" x2="910" y1="136" y2="136"/><line style="stroke:#181818;stroke-width:0.5;" x1="910" x2="910" y1="136" y2="173.6094"/><text fill="#000000" font-family="sans-serif" font-size="14" lengthAdjust="spacing" textLength="111" x="784" y="160.5332">Objet Connecté n</text></g><!--MD5=[fa1e3283224feb76407c84b7e90ed808]
entity Database--><g id="elem_Database"><path d="M804,426.5 C804,416.5 844.5,416.5 844.5,416.5 C844.5,416.5 885,416.5 885,426.5 L885,453.1094 C885,463.1094 844.5,463.1094 844.5,463.1094 C844.5,463.1094 804,463.1094 804,453.1094 L804,426.5 " fill="#F1F1F1" style="stroke:#181818;stroke-width:0.5;"/><path d="M804,426.5 C804,436.5 844.5,436.5 844.5,436.5 C844.5,436.5 885,436.5 885,426.5 " fill="none" style="stroke:#181818;stroke-width:0.5;"/><text fill="#000000" font-family="sans-serif" font-size="14" lengthAdjust="spacing" textLength="61" x="814" y="455.0332">Database</text></g><!--MD5=[221b3b870647bf121fb4faa400628437]
entity navigateur--><g id="elem_navigateur"><rect fill="#F1F1F1" height="37.6094" rx="2.5" ry="2.5" style="stroke:#181818;stroke-width:0.5;" width="87" x="132.5" y="150"/><text fill="#000000" font-family="sans-serif" font-size="14" lengthAdjust="spacing" textLength="67" x="142.5" y="174.5332">navigateur</text></g><!--MD5=[2cae63be679ddaee9da84cf801516247]
entity application desktop--><g id="elem_application desktop"><rect fill="#F1F1F1" height="37.6094" rx="2.5" ry="2.5" style="stroke:#181818;stroke-width:0.5;" width="142" x="105" y="223"/><text fill="#000000" font-family="sans-serif" font-size="14" lengthAdjust="spacing" textLength="122" x="115" y="247.5332">application desktop</text></g><!--MD5=[4541fb81c80c07473fe4b07432ef0971]
entity app--><g id="elem_app"><rect fill="#F1F1F1" height="37.6094" rx="2.5" ry="2.5" style="stroke:#181818;stroke-width:0.5;" width="44" x="154" y="393"/><text fill="#000000" font-family="sans-serif" font-size="14" lengthAdjust="spacing" textLength="24" x="164" y="417.5332">app</text></g><!--MD5=[abea0b42432aea0f9ce66e53feda8644]
entity System--><g id="elem_System"><path d="M430.8502,354.598 C435.4317,347.0713 440.543,346.121 447.0457,352.3333 C448.8078,344.6758 454.248,341.5871 460.6782,347.7181 C467.0471,342.8914 472.7162,343.047 475.2116,351.8488 C480.9023,345.7239 487.8003,345.9525 491.86,353.7932 C500.9653,354.2982 505.1514,360.1887 501.3295,368.8331 C507.4507,378.2419 502.5104,385.1847 492.1892,385.6646 C489.444,393.6571 482.9766,396.3931 476.4047,389.8082 C474.2822,399.6981 467.5728,400.7596 460.5038,394.7574 C453.5596,400.6989 448.7945,398.6325 445.8893,390.5488 C439.0048,397.5435 433.6541,393.9421 430.7178,386.422 C421.2581,383.1143 419.1602,376.7269 426.2786,369.1567 C421.5517,362.4165 422.8396,357.3385 430.8502,354.598 " fill="#F1F1F1" style="stroke:#181818;stroke-width:0.5;"/><text fill="#000000" font-family="sans-serif" font-size="14" lengthAdjust="spacing" textLength="46" x="437" y="374.5332">System</text></g><!--MD5=[e59ef3cedbbcf3d1e38c1cba992b69eb]
link System to Database--><g id="link_System_Database"><path d="M498.02,375.87 C570.3,389.29 729.59,418.86 803.89,432.65 " fill="none" id="System-Database" style="stroke:#181818;stroke-width:1.0;"/><path d="M644.5358,395.8784 A10,10 0 0 0 641.9546 409.783" fill="none" style="stroke:#181818;stroke-width:1.5;"/><ellipse cx="650.1975" cy="404.1213" fill="#FFFFFF" rx="6" ry="6" style="stroke:#181818;stroke-width:1.5;"/></g><!--MD5=[2f04d71d21b5d698d6cd20b54dd56dfa]
link ordinateur to System--><g id="link_ordinateur_System"><path d="M208.4937,304.1524 C208.7711,304.2242 209.0499,304.2964 209.3302,304.369 C210.4513,304.6592 211.5957,304.9555 212.7623,305.2575 C215.0957,305.8616 217.5183,306.4888 220.0224,307.137 C225.0306,308.4336 230.365,309.8145 235.964,311.2639 C247.162,314.1628 259.4184,317.3356 272.2413,320.655 C323.5325,333.9325 383.885,349.555 421.8,359.37 " fill="none" id="ordinateur-System" style="stroke:#181818;stroke-width:1.0;"/><path d="M346.9633,332.6935 A10,10 0 0 0 343.4193 346.3844" fill="none" style="stroke:#181818;stroke-width:1.5;"/><ellipse cx="352.0367" cy="341.3109" fill="#FFFFFF" rx="6" ry="6" style="stroke:#181818;stroke-width:1.5;"/></g><!--MD5=[13fe48c6f028187ce7a5fd2db17419e0]
link Smartphone to System--><g id="link_Smartphone_System"><path d="M257.6508,466.1383 C258.23,466.0967 258.8107,466.054 259.3927,466.0101 C261.721,465.8347 264.0714,465.6413 266.4402,465.4286 C275.9154,464.5774 285.684,463.4161 295.5002,461.8559 C315.1325,458.7356 334.955,454.02 353,447 C384.09,434.91 414.19,411.24 434.33,393.13 " fill="none" id="Smartphone-System" style="stroke:#181818;stroke-width:1.0;"/><path d="M343.8464,442.9737 A10,10 0 0 0 348.9737 456.1536" fill="none" style="stroke:#181818;stroke-width:1.5;"/><ellipse cx="353" cy="447" fill="#FFFFFF" rx="6" ry="6" style="stroke:#181818;stroke-width:1.5;"/></g><!--MD5=[3c32d56249cfa89c42b550a0ca76438e]
link System to router--><g id="link_System_router"><path d="M498.21,357.5 C525.8,348.98 563.37,337.36 591.76,328.59 " fill="none" id="System-router" style="stroke:#181818;stroke-width:1.0;"/><path d="M553.5289,347.8062 A10,10 0 0 0 549.3525 334.2948" fill="none" style="stroke:#181818;stroke-width:1.5;"/><ellipse cx="544.685" cy="343.1388" fill="#FFFFFF" rx="6" ry="6" style="stroke:#181818;stroke-width:1.5;"/></g><!--MD5=[c86e7da65263de2be558aac3f2b2e4ed]
@startuml
    left to right direction
    rectangle "Home" as h {
        node "Router" as router
        node "Objet Connecté 1"
        node "Objet Connecté 2"
        node "Objet Connecté 3"
        node "Objet Connecté 4"
        node "Objet Connecté n"
    }

    cloud System
    cloud Cloud{
        database Database
    }

    rectangle "Admin,Agent de securité,Propriétaire,Habitant" as admin{
        node ordinateur {
            rectangle navigateur
            rectangle "application desktop"
        }
        node Smartphone{
            rectangle app
        }
    }

    System -(0- - Database
    ordinateur -(0- - System
    Smartphone -(0- - System
    System -0)- router
@enduml

PlantUML version 1.2022.7(Mon Aug 22 19:01:30 CEST 2022)
(GPL source distribution)
Java Runtime: Java(TM) SE Runtime Environment
JVM: Java HotSpot(TM) 64-Bit Server VM
Default Encoding: Cp1252
Language: fr
Country: FR
--></g></svg>