<?xml version="1.0" encoding="UTF-8" standalone="no"?><svg xmlns="http://www.w3.org/2000/svg" xmlns:xlink="http://www.w3.org/1999/xlink" contentStyleType="text/css" height="505px" preserveAspectRatio="none" style="width:951px;height:505px;background:#FFFFFF;" version="1.1" viewBox="0 0 951 505" width="951px" zoomAndPan="magnify"><defs/><g><!--MD5=[8eb62d8c178553d84595041b03834873]
cluster Smart Home--><g id="cluster_Smart Home"><rect fill="none" height="492" rx="2.5" ry="2.5" style="stroke:#181818;stroke-width:1.0;" width="822" x="123" y="7"/><text fill="#000000" font-family="sans-serif" font-size="14" font-weight="bold" lengthAdjust="spacing" textLength="96" x="486" y="21.9951">Smart Home</text></g><g id="elem_gss"><ellipse cx="234.0118" cy="174.9024" fill="#F1F1F1" rx="95.0118" ry="21.4024" style="stroke:#181818;stroke-width:0.5;"/><text fill="#000000" font-family="sans-serif" font-size="14" lengthAdjust="spacing" textLength="153" x="157.5118" y="177.749">Gerer system securité</text></g><g id="elem_manageCams"><ellipse cx="234.1781" cy="303.1356" fill="#F1F1F1" rx="71.1781" ry="16.6356" style="stroke:#181818;stroke-width:0.5;"/><text fill="#000000" font-family="sans-serif" font-size="14" lengthAdjust="spacing" textLength="96" x="183.1781" y="306.8832">Gerer Camera</text></g><g id="elem_consultLive"><ellipse cx="598.7771" cy="461.9554" fill="#F1F1F1" rx="92.7771" ry="20.9554" style="stroke:#181818;stroke-width:0.5;"/><text fill="#000000" font-family="sans-serif" font-size="14" lengthAdjust="spacing" textLength="148" x="524.7771" y="464.8021">Consulter live camera</text></g><g id="elem_consultHistory"><ellipse cx="598.9476" cy="375.8895" fill="#F1F1F1" rx="134.9476" ry="29.3895" style="stroke:#181818;stroke-width:0.5;"/><text fill="#000000" font-family="sans-serif" font-size="14" lengthAdjust="spacing" textLength="239" x="479.4476" y="378.7362">Consulter l'historique des cameras</text></g><g id="elem_activer"><ellipse cx="599.1452" cy="209.1209" fill="#F1F1F1" rx="43.6452" ry="14.6209" style="stroke:#181818;stroke-width:0.5;"/><text fill="#000000" font-family="sans-serif" font-size="14" lengthAdjust="spacing" textLength="45" x="573.6452" y="212.8684">activer</text></g><g id="elem_desactiver"><ellipse cx="598.9096" cy="143.8819" fill="#F1F1F1" rx="62.4096" ry="14.8819" style="stroke:#181818;stroke-width:0.5;"/><text fill="#000000" font-family="sans-serif" font-size="14" lengthAdjust="spacing" textLength="71" x="560.4096" y="147.6295">desactiver</text></g><g id="elem_login"><ellipse cx="862.1678" cy="166.8336" fill="#F1F1F1" rx="67.1678" ry="15.8336" style="stroke:#181818;stroke-width:0.5;"/><text fill="#000000" font-family="sans-serif" font-size="14" lengthAdjust="spacing" textLength="85" x="816.6678" y="170.5811">S'authentifié</text></g><g id="elem_consultNotif"><ellipse cx="233.8318" cy="375.8664" fill="#F1F1F1" rx="92.3318" ry="20.8664" style="stroke:#181818;stroke-width:0.5;"/><text fill="#000000" font-family="sans-serif" font-size="14" lengthAdjust="spacing" textLength="147" x="160.3318" y="378.713">Consulter Notification</text></g><!--MD5=[f26b11eb8de3600b24c56d19a52b3c65]
entity prop--><g id="elem_prop"><ellipse cx="41" cy="273.5" fill="#F1F1F1" rx="8" ry="8" style="stroke:#181818;stroke-width:0.5;"/><path d="M41,281.5 L41,308.5 M28,289.5 L54,289.5 M41,308.5 L28,323.5 M41,308.5 L54,323.5 " fill="none" style="stroke:#181818;stroke-width:0.5;"/><text fill="#000000" font-family="sans-serif" font-size="14" lengthAdjust="spacing" textLength="70" x="6" y="337.9951">proprietair</text></g><!--MD5=[041ed813422e4872d54b3970cb250aa1]
link prop to manageCams--><g id="link_prop_manageCams"><path d="M76.15,303 C98.77,303 129.37,303 157.53,303 " fill="none" id="prop-to-manageCams" style="stroke:#181818;stroke-width:1.0;"/><polygon fill="#181818" points="162.76,303,153.76,299,157.76,303,153.76,307,162.76,303" style="stroke:#181818;stroke-width:1.0;"/></g><!--MD5=[492cacbb7c579216750cde58603f7739]
link prop to gss--><g id="link_prop_gss"><path d="M76.15,280.12 C110.55,257.06 163.37,221.66 198.05,198.42 " fill="none" id="prop-to-gss" style="stroke:#181818;stroke-width:1.0;"/><polygon fill="#181818" points="202.61,195.36,192.9067,197.0472,198.4563,198.1434,197.3601,203.693,202.61,195.36" style="stroke:#181818;stroke-width:1.0;"/></g><!--MD5=[595f437332a3a79d83086a38f872feee]
link prop to consultNotif--><g id="link_prop_consultNotif"><path d="M76.17,319.92 C88.3,325.66 102.13,331.9 115,337 C133.52,344.34 154.02,351.46 172.68,357.56 " fill="none" id="prop-to-consultNotif" style="stroke:#181818;stroke-width:1.0;"/><polygon fill="#181818" points="177.89,359.26,170.5688,352.6721,173.1353,357.7133,168.0941,360.2797,177.89,359.26" style="stroke:#181818;stroke-width:1.0;"/></g><!--MD5=[a624d944cf3db47e684bee7a0e1d6ca0]
reverse link gss to activer--><g id="link_gss_activer"><path d="M322.55,186.05 C334.78,187.46 347.2,188.82 359,190 C427.96,196.91 508.32,202.87 556.07,206.19 " fill="none" id="gss-backto-activer" style="stroke:#181818;stroke-width:1.0;stroke-dasharray:7.0,7.0;"/><polygon fill="#181818" points="317.32,185.44,325.8027,190.4443,322.2871,186.0126,326.7189,182.497,317.32,185.44" style="stroke:#181818;stroke-width:1.0;"/><text fill="#000000" font-family="sans-serif" font-size="13" lengthAdjust="spacing" textLength="73" x="360" y="186.0669">&lt;extends&gt;</text></g><!--MD5=[41e6de2fb6db420ec10c4136549c0d5a]
reverse link gss to desactiver--><g id="link_gss_desactiver"><path d="M328.51,167.01 C395.29,161.31 483.04,153.82 539.97,148.96 " fill="none" id="gss-backto-desactiver" style="stroke:#181818;stroke-width:1.0;stroke-dasharray:7.0,7.0;"/><polygon fill="#181818" points="323.34,167.46,332.6503,170.6722,328.3215,167.0306,331.9632,162.7018,323.34,167.46" style="stroke:#181818;stroke-width:1.0;"/><text fill="#000000" font-family="sans-serif" font-size="13" lengthAdjust="spacing" textLength="73" x="360" y="155.0669">&lt;extends&gt;</text></g><!--MD5=[ac5dec77f597a4a391e48f9340985f8c]
reverse link manageCams to consultHistory--><g id="link_manageCams_consultHistory"><path d="M293.11,314.69 C348.53,325.83 433.11,342.84 499.14,356.12 " fill="none" id="manageCams-backto-consultHistory" style="stroke:#181818;stroke-width:1.0;stroke-dasharray:7.0,7.0;"/><polygon fill="#181818" points="288.17,313.69,296.2044,319.3864,293.0718,314.6761,297.7821,311.5435,288.17,313.69" style="stroke:#181818;stroke-width:1.0;"/><text fill="#000000" font-family="sans-serif" font-size="13" lengthAdjust="spacing" textLength="73" x="360" y="325.0669">&lt;extends&gt;</text></g><!--MD5=[d7500e27698c7249181fd173783967a1]
reverse link manageCams to consultLive--><g id="link_manageCams_consultLive"><path d="M286.64,317.12 C300.96,322.22 316.1,328.8 329,337 C344.91,347.12 343.85,355.77 359,367 C401.5,398.49 415.01,403.06 464,423 C486.78,432.27 512.56,440.32 535.38,446.66 " fill="none" id="manageCams-backto-consultLive" style="stroke:#181818;stroke-width:1.0;stroke-dasharray:7.0,7.0;"/><polygon fill="#181818" points="281.82,315.44,289.0088,322.1721,286.5431,317.0809,291.6343,314.6152,281.82,315.44" style="stroke:#181818;stroke-width:1.0;"/><text fill="#000000" font-family="sans-serif" font-size="13" lengthAdjust="spacing" textLength="73" x="360" y="363.0669">&lt;extends&gt;</text></g><!--MD5=[87e8d2749515f81ab38b44d04ef921b7]
link gss to login--><g id="link_gss_login"><path d="M285.62,156.94 C307.95,149.32 334.62,140.68 359,134 C520.04,89.87 570.61,76.58 734,111 C769.07,118.39 806.26,136.1 831.27,149.64 " fill="none" id="gss-to-login" style="stroke:#181818;stroke-width:1.0;stroke-dasharray:7.0,7.0;"/><polygon fill="#181818" points="835.79,152.11,829.8151,144.2806,831.4038,149.7097,825.9746,151.2985,835.79,152.11" style="stroke:#181818;stroke-width:1.0;"/><text fill="#000000" font-family="sans-serif" font-size="13" lengthAdjust="spacing" textLength="74" x="562" y="88.0669">&lt;includes&gt;</text></g><!--MD5=[a612e2b41248c2d58ecb1cde764686e6]
link manageCams to login--><g id="link_manageCams_login"><path d="M304.75,301.22 C422.93,297.46 657.15,286.56 734,258 C776.78,242.1 818.19,207.79 841.55,186.14 " fill="none" id="manageCams-to-login" style="stroke:#181818;stroke-width:1.0;stroke-dasharray:7.0,7.0;"/><polygon fill="#181818" points="845.42,182.51,836.1184,185.7473,841.7723,185.9297,841.5899,191.5836,845.42,182.51" style="stroke:#181818;stroke-width:1.0;"/><text fill="#000000" font-family="sans-serif" font-size="13" lengthAdjust="spacing" textLength="74" x="562" y="254.0669">&lt;includes&gt;</text></g><!--MD5=[ee1bfbcbe4550ffd088b1ffdf955e41b]
@startuml
    left to right direction
    actor proprietair as prop
    rectangle "Smart Home"{
        usecase "Gerer system securité" as gss
        usecase "Gerer Camera" as manageCams
        usecase "Consulter live camera" as consultLive
        usecase "Consulter l'historique des cameras" as consultHistory
        usecase activer
        usecase desactiver
        usecase "S'authentifié" as login 
        usecase "Consulter Notification" as consultNotif
    }
    prop - -> manageCams
    prop - -> gss
    prop - -> consultNotif
    gss <.down. activer : <extends>
    gss <.down. desactiver : <extends>
    manageCams <.down. consultHistory : <extends>
    manageCams <.down. consultLive : <extends>
    gss .down..> login : <includes>
    manageCams .down..> login : <includes>
@enduml

PlantUML version 1.2022.7(Mon Aug 22 18:01:30 CET 2022)
(GPL source distribution)
Java Runtime: OpenJDK Runtime Environment
JVM: OpenJDK 64-Bit Server VM
Default Encoding: UTF-8
Language: en
Country: US
--></g></svg>