<?xml version="1.0" encoding="UTF-8" standalone="no"?><svg xmlns="http://www.w3.org/2000/svg" xmlns:xlink="http://www.w3.org/1999/xlink" contentStyleType="text/css" height="506px" preserveAspectRatio="none" style="width:908px;height:506px;background:#FFFFFF;" version="1.1" viewBox="0 0 908 506" width="908px" zoomAndPan="magnify"><defs/><g><!--MD5=[8eb62d8c178553d84595041b03834873]
cluster Smart Home--><g id="cluster_Smart Home"><rect fill="none" height="493" rx="2.5" ry="2.5" style="stroke:#181818;stroke-width:1.0;" width="784" x="118" y="7"/><text fill="#000000" font-family="sans-serif" font-size="14" font-weight="bold" lengthAdjust="spacing" textLength="84" x="468" y="23.5332">Smart Home</text></g><g id="elem_gss"><ellipse cx="224.3974" cy="180.9795" fill="#F1F1F1" rx="90.3974" ry="20.4795" style="stroke:#181818;stroke-width:0.5;"/><text fill="#000000" font-family="sans-serif" font-size="14" lengthAdjust="spacing" textLength="139" x="154.8974" y="184.708">Gerer system securité</text></g><g id="elem_manageCams"><ellipse cx="224.7113" cy="305.1423" fill="#F1F1F1" rx="71.2113" ry="16.6423" style="stroke:#181818;stroke-width:0.5;"/><text fill="#000000" font-family="sans-serif" font-size="14" lengthAdjust="spacing" textLength="91" x="176.2113" y="309.6589">Gerer Camera</text></g><g id="elem_consultLive"><ellipse cx="565.035" cy="462.807" fill="#F1F1F1" rx="89.535" ry="20.307" style="stroke:#181818;stroke-width:0.5;"/><text fill="#000000" font-family="sans-serif" font-size="14" lengthAdjust="spacing" textLength="137" x="496.535" y="466.5355">Consulter live camera</text></g><g id="elem_consultHistory"><ellipse cx="565.1384" cy="380.1277" fill="#F1F1F1" rx="126.1384" ry="27.6277" style="stroke:#181818;stroke-width:0.5;"/><text fill="#000000" font-family="sans-serif" font-size="14" lengthAdjust="spacing" textLength="218" x="456.1384" y="383.8562">Consulter l'historique des cameras</text></g><g id="elem_activer"><ellipse cx="565.1838" cy="212.9517" fill="#F1F1F1" rx="41.1838" ry="15.4517" style="stroke:#181818;stroke-width:0.5;"/><text fill="#000000" font-family="sans-serif" font-size="14" lengthAdjust="spacing" textLength="42" x="544.1838" y="216.6802">activer</text></g><g id="elem_desactiver"><ellipse cx="564.952" cy="147.0671" fill="#F1F1F1" rx="57.952" ry="15.5671" style="stroke:#181818;stroke-width:0.5;"/><text fill="#000000" font-family="sans-serif" font-size="14" lengthAdjust="spacing" textLength="65" x="529.452" y="151.5837">desactiver</text></g><g id="elem_login"><ellipse cx="818.7537" cy="170.7507" fill="#F1F1F1" rx="66.7537" ry="15.7507" style="stroke:#181818;stroke-width:0.5;"/><text fill="#000000" font-family="sans-serif" font-size="14" lengthAdjust="spacing" textLength="78" x="776.7537" y="175.2673">S'authentifié</text></g><!--MD5=[f26b11eb8de3600b24c56d19a52b3c65]
entity prop--><g id="elem_prop"><ellipse cx="38.5" cy="218.5" fill="#F1F1F1" rx="8" ry="8" style="stroke:#181818;stroke-width:0.5;"/><path d="M38.5,226.5 L38.5,253.5 M25.5,234.5 L51.5,234.5 M38.5,253.5 L25.5,268.5 M38.5,253.5 L51.5,268.5 " fill="none" style="stroke:#181818;stroke-width:0.5;"/><text fill="#000000" font-family="sans-serif" font-size="14" lengthAdjust="spacing" textLength="65" x="6" y="284.5332">proprietair</text></g><!--MD5=[041ed813422e4872d54b3970cb250aa1]
link prop to manageCams--><g id="link_prop_manageCams"><path d="M71.13,258.63 C99.92,267.39 142.84,280.45 175.8,290.48 " fill="none" id="prop-to-manageCams" style="stroke:#181818;stroke-width:1.0;"/><polygon fill="#181818" points="180.58,291.94,173.1353,285.492,175.7968,290.4836,170.8051,293.1451,180.58,291.94" style="stroke:#181818;stroke-width:1.0;"/></g><!--MD5=[492cacbb7c579216750cde58603f7739]
link prop to gss--><g id="link_prop_gss"><path d="M71.13,237.31 C98.75,227.1 139.36,212.1 171.71,200.14 " fill="none" id="prop-to-gss" style="stroke:#181818;stroke-width:1.0;"/><polygon fill="#181818" points="176.42,198.4,166.5918,197.7621,171.729,200.1305,169.3606,205.2677,176.42,198.4" style="stroke:#181818;stroke-width:1.0;"/></g><!--MD5=[a624d944cf3db47e684bee7a0e1d6ca0]
reverse link gss to activer--><g id="link_gss_activer"><path d="M282.8,198.95 C302.33,204.24 324.43,209.33 345,212 C407.4,220.11 480.65,218.15 524.64,215.75 " fill="none" id="gss-backto-activer" style="stroke:#181818;stroke-width:1.0;stroke-dasharray:7.0,7.0;"/><polygon fill="#181818" points="277.89,197.61,285.5235,203.8333,282.7145,198.9232,287.6246,196.1141,277.89,197.61" style="stroke:#181818;stroke-width:1.0;"/><text fill="#000000" font-family="sans-serif" font-size="13" lengthAdjust="spacing" textLength="62" x="346" y="208.4951">&lt;extends&gt;</text></g><!--MD5=[41e6de2fb6db420ec10c4136549c0d5a]
reverse link gss to desactiver--><g id="link_gss_desactiver"><path d="M312.67,172.24 C375.19,165.96 457.43,157.7 510.51,152.37 " fill="none" id="gss-backto-desactiver" style="stroke:#181818;stroke-width:1.0;stroke-dasharray:7.0,7.0;"/><polygon fill="#181818" points="307.44,172.77,316.7951,175.8493,312.4149,172.2697,315.9945,167.8894,307.44,172.77" style="stroke:#181818;stroke-width:1.0;"/><text fill="#000000" font-family="sans-serif" font-size="13" lengthAdjust="spacing" textLength="62" x="346" y="159.4951">&lt;extends&gt;</text></g><!--MD5=[ac5dec77f597a4a391e48f9340985f8c]
reverse link manageCams to consultHistory--><g id="link_manageCams_consultHistory"><path d="M281.57,317.42 C334.46,329.14 414.56,346.89 475.96,360.49 " fill="none" id="manageCams-backto-consultHistory" style="stroke:#181818;stroke-width:1.0;stroke-dasharray:7.0,7.0;"/><polygon fill="#181818" points="276.54,316.31,284.4743,322.145,281.4239,317.381,286.1879,314.3307,276.54,316.31" style="stroke:#181818;stroke-width:1.0;"/><text fill="#000000" font-family="sans-serif" font-size="13" lengthAdjust="spacing" textLength="62" x="346" y="330.4951">&lt;extends&gt;</text></g><!--MD5=[d7500e27698c7249181fd173783967a1]
reverse link manageCams to consultLive--><g id="link_manageCams_consultLive"><path d="M253.49,323.35 C293.35,348.87 369.39,395.27 439,425 C459.86,433.91 483.5,441.65 504.56,447.79 " fill="none" id="manageCams-backto-consultLive" style="stroke:#181818;stroke-width:1.0;stroke-dasharray:7.0,7.0;"/><polygon fill="#181818" points="249.28,320.64,254.7003,328.8632,253.4901,323.3373,259.0159,322.1271,249.28,320.64" style="stroke:#181818;stroke-width:1.0;"/><text fill="#000000" font-family="sans-serif" font-size="13" lengthAdjust="spacing" textLength="62" x="346" y="377.4951">&lt;extends&gt;</text></g><!--MD5=[87e8d2749515f81ab38b44d04ef921b7]
link gss to login--><g id="link_gss_login"><path d="M270.2,163.18 C292.48,154.65 319.94,144.65 345,137 C492.4,91.99 540.3,81.73 691,114 C726.37,121.57 763.8,139.78 788.78,153.59 " fill="none" id="gss-to-login" style="stroke:#181818;stroke-width:1.0;stroke-dasharray:7.0,7.0;"/><polygon fill="#181818" points="793.3,156.12,787.4058,148.2296,788.9387,153.6748,783.4935,155.2077,793.3,156.12" style="stroke:#181818;stroke-width:1.0;"/><text fill="#000000" font-family="sans-serif" font-size="13" lengthAdjust="spacing" textLength="64" x="533" y="92.4951">&lt;includes&gt;</text></g><!--MD5=[a612e2b41248c2d58ecb1cde764686e6]
link manageCams to login--><g id="link_manageCams_login"><path d="M295.49,303.43 C407.22,300.15 620.48,290.54 691,264 C734.04,247.8 775.37,212.72 798.64,190.57 " fill="none" id="manageCams-to-login" style="stroke:#181818;stroke-width:1.0;stroke-dasharray:7.0,7.0;"/><polygon fill="#181818" points="802.49,186.87,793.2213,190.2004,798.8768,190.3261,798.7511,195.9816,802.49,186.87" style="stroke:#181818;stroke-width:1.0;"/><text fill="#000000" font-family="sans-serif" font-size="13" lengthAdjust="spacing" textLength="64" x="533" y="260.4951">&lt;includes&gt;</text></g><!--MD5=[8e8acacc3bac33e805fc5491e4115330]
@startuml
    left to right direction
    actor proprietair as prop
    rectangle "Smart Home"{
        usecase "Gerer system securité" as gss
        usecase "Gerer Camera" as manageCams
        usecase "Consulter live camera" as consultLive
        usecase "Consulter l'historique des cameras" as consultHistory
        usecase activer
        usecase desactiver
        usecase "S'authentifié" as login 
    }
    prop - -> manageCams
    prop - -> gss
    gss <.down. activer : <extends>
    gss <.down. desactiver : <extends>
    manageCams <.down. consultHistory : <extends>
    manageCams <.down. consultLive : <extends>
    gss .down..> login : <includes>
    manageCams .down..> login : <includes>
@enduml

PlantUML version 1.2022.7(Mon Aug 22 19:01:30 CEST 2022)
(GPL source distribution)
Java Runtime: Java(TM) SE Runtime Environment
JVM: Java HotSpot(TM) 64-Bit Server VM
Default Encoding: Cp1252
Language: fr
Country: FR
--></g></svg>