<?xml version="1.0" encoding="UTF-8" standalone="no"?><svg xmlns="http://www.w3.org/2000/svg" xmlns:xlink="http://www.w3.org/1999/xlink" contentStyleType="text/css" height="355px" preserveAspectRatio="none" style="width:597px;height:355px;background:#FFFFFF;" version="1.1" viewBox="0 0 597 355" width="597px" zoomAndPan="magnify"><defs/><g><!--MD5=[8eb62d8c178553d84595041b03834873]
cluster Smart Home--><g id="cluster_Smart Home"><rect fill="none" height="342" rx="2.5" ry="2.5" style="stroke:#181818;stroke-width:1.0;" width="496" x="95" y="7"/><text fill="#000000" font-family="sans-serif" font-size="14" font-weight="bold" lengthAdjust="spacing" textLength="96" x="295" y="21.9951">Smart Home</text></g><g id="elem_update"><ellipse cx="208.2198" cy="188.244" fill="#F1F1F1" rx="74.2198" ry="17.244" style="stroke:#181818;stroke-width:0.5;"/><text fill="#000000" font-family="sans-serif" font-size="14" lengthAdjust="spacing" textLength="104" x="153.2198" y="191.9915">update System</text></g><g id="elem_consCompt"><ellipse cx="208.1379" cy="113.0276" fill="#F1F1F1" rx="83.1379" ry="19.0276" style="stroke:#181818;stroke-width:0.5;"/><text fill="#000000" font-family="sans-serif" font-size="14" lengthAdjust="spacing" textLength="126" x="144.5914" y="116.0594">Consulter Compte</text></g><g id="elem_bloquer"><ellipse cx="508.1151" cy="122.1874" fill="#F1F1F1" rx="49.6151" ry="14.6874" style="stroke:#181818;stroke-width:0.5;"/><text fill="#000000" font-family="sans-serif" font-size="14" lengthAdjust="spacing" textLength="53" x="478.6151" y="125.9349">bloquer</text></g><g id="elem_debloquer"><ellipse cx="507.9096" cy="56.8819" fill="#F1F1F1" rx="62.4096" ry="14.8819" style="stroke:#181818;stroke-width:0.5;"/><text fill="#000000" font-family="sans-serif" font-size="14" lengthAdjust="spacing" textLength="71" x="469.4096" y="60.6295">debloquer</text></g><g id="elem_login"><ellipse cx="507.8142" cy="187.7628" fill="#F1F1F1" rx="66.8142" ry="15.7628" style="stroke:#181818;stroke-width:0.5;"/><text fill="#000000" font-family="sans-serif" font-size="14" lengthAdjust="spacing" textLength="84" x="462.8142" y="191.5104">s'authentifié</text></g><g id="elem_attribuer"><ellipse cx="507.8472" cy="254.2215" fill="#F1F1F1" rx="53.3472" ry="14.7215" style="stroke:#181818;stroke-width:0.5;"/><text fill="#000000" font-family="sans-serif" font-size="14" lengthAdjust="spacing" textLength="58" x="475.8472" y="257.969">attribuer</text></g><g id="elem_consAccess"><ellipse cx="207.8093" cy="281.7619" fill="#F1F1F1" rx="96.8093" ry="21.7619" style="stroke:#181818;stroke-width:0.5;"/><text fill="#000000" font-family="sans-serif" font-size="14" lengthAdjust="spacing" textLength="157" x="129.3093" y="284.6085">consulter droit d'acces</text></g><g id="elem_limiter"><ellipse cx="508.1638" cy="318.0812" fill="#F1F1F1" rx="40.6638" ry="14.5812" style="stroke:#181818;stroke-width:0.5;"/><text fill="#000000" font-family="sans-serif" font-size="14" lengthAdjust="spacing" textLength="41" x="485.0122" y="321.7432">limiter</text></g><!--MD5=[a2a1127a9e0c3d5a4af797120761d109]
entity ad--><g id="elem_ad"><ellipse cx="27" cy="199.5" fill="#F1F1F1" rx="8" ry="8" style="stroke:#181818;stroke-width:0.5;"/><path d="M27,207.5 L27,234.5 M14,215.5 L40,215.5 M27,234.5 L14,249.5 M27,234.5 L40,249.5 " fill="none" style="stroke:#181818;stroke-width:0.5;"/><text fill="#000000" font-family="sans-serif" font-size="14" lengthAdjust="spacing" textLength="42" x="6" y="263.9951">admin</text></g><!--MD5=[d78e95e48f188c06631e62a916db479a]
link ad to update--><g id="link_ad_update"><path d="M48.19,224.38 C72.67,218.77 115,209.07 149.8,201.1 " fill="none" id="ad-to-update" style="stroke:#181818;stroke-width:1.0;"/><polygon fill="#181818" points="154.88,199.94,145.2147,198.0475,150.0059,201.0549,146.9985,205.8461,154.88,199.94" style="stroke:#181818;stroke-width:1.0;"/></g><!--MD5=[479ee56ac5d61d5c3f8081e111e610da]
link ad to consCompt--><g id="link_ad_consCompt"><path d="M48.24,194.56 C58.3,179.99 71.6,163.91 87,153 C102.97,141.69 122.37,133.41 140.86,127.41 " fill="none" id="ad-to-consCompt" style="stroke:#181818;stroke-width:1.0;"/><polygon fill="#181818" points="146.05,125.78,136.2647,124.6632,141.2801,127.2795,138.6639,132.295,146.05,125.78" style="stroke:#181818;stroke-width:1.0;"/></g><!--MD5=[b3a4c8fcea300889662a7991258ebca4]
link ad to consAccess--><g id="link_ad_consAccess"><path d="M48.05,239.36 C57.04,243.7 67.88,248.53 78,252 C94.17,257.53 111.82,262.38 128.73,266.48 " fill="none" id="ad-to-consAccess" style="stroke:#181818;stroke-width:1.0;"/><polygon fill="#181818" points="133.95,267.73,126.1181,261.7583,129.0854,266.5745,124.2692,269.5418,133.95,267.73" style="stroke:#181818;stroke-width:1.0;"/></g><!--MD5=[f3cd1d8406d1a35a43b9a737f755b78a]
reverse link consCompt to bloquer--><g id="link_consCompt_bloquer"><path d="M311.51,111.14 C343.4,111.07 378.67,111.49 411,113 C427.55,113.77 445.66,115.3 461.65,116.87 " fill="none" id="consCompt-backto-bloquer" style="stroke:#181818;stroke-width:1.0;"/><polygon fill="none" points="311.15,118.15,291.11,111.26,311.07,104.15,311.15,118.15" style="stroke:#181818;stroke-width:1.0;"/></g><!--MD5=[5d6326cbf495c1ca86872227e6cad38a]
reverse link consCompt to debloquer--><g id="link_consCompt_debloquer"><path d="M292.29,97.35 C345.76,87.3 413.34,74.6 458.26,66.16 " fill="none" id="consCompt-backto-debloquer" style="stroke:#181818;stroke-width:1.0;"/><polygon fill="none" points="293.51,104.24,272.56,101.06,290.93,90.48,293.51,104.24" style="stroke:#181818;stroke-width:1.0;"/></g><!--MD5=[a56544051e2c930bbc848e442f78eaba]
reverse link consAccess to attribuer--><g id="link_consAccess_attribuer"><path d="M322.98,286.78 C351.81,286.53 382.64,284.98 411,281 C432.6,277.97 456.2,271.38 474.59,265.47 " fill="none" id="consAccess-backto-attribuer" style="stroke:#181818;stroke-width:1.0;"/><polygon fill="none" points="322.9,293.78,302.91,286.76,322.91,279.78,322.9,293.78" style="stroke:#181818;stroke-width:1.0;"/></g><!--MD5=[b7d3d7e55f90e59660ff795b5c9ac481]
reverse link consAccess to limiter--><g id="link_consAccess_limiter"><path d="M314.18,294.71 C368.11,301.22 430.43,308.75 469.29,313.44 " fill="none" id="consAccess-backto-limiter" style="stroke:#181818;stroke-width:1.0;"/><polygon fill="none" points="313.01,301.62,294,292.27,314.69,287.72,313.01,301.62" style="stroke:#181818;stroke-width:1.0;"/></g><!--MD5=[78a21efba5acd9f5370b711c2fbebce5]
link update to login--><g id="link_update_login"><path d="M281.46,190.14 C319.94,191.01 368.04,191.67 411,191 C419.22,190.87 427.82,190.68 436.37,190.46 " fill="none" id="update-to-login" style="stroke:#181818;stroke-width:1.0;stroke-dasharray:7.0,7.0;"/><polygon fill="#181818" points="441.68,190.32,432.5802,186.5527,436.6817,190.4485,432.7858,194.55,441.68,190.32" style="stroke:#181818;stroke-width:1.0;"/><text fill="#000000" font-family="sans-serif" font-size="13" lengthAdjust="spacing" textLength="74" x="336" y="187.0669">&lt;includes&gt;</text></g><!--MD5=[d4162209d1a94961b517f8df65b7b9d9]
link consCompt to login--><g id="link_consCompt_login"><path d="M264.7,127.02 C319.7,140.86 403.07,161.84 456.28,175.23 " fill="none" id="consCompt-to-login" style="stroke:#181818;stroke-width:1.0;stroke-dasharray:7.0,7.0;"/><polygon fill="#181818" points="461.33,176.51,453.5899,170.4197,456.4835,175.2805,451.6227,178.1741,461.33,176.51" style="stroke:#181818;stroke-width:1.0;"/><text fill="#000000" font-family="sans-serif" font-size="13" lengthAdjust="spacing" textLength="74" x="336" y="143.0669">&lt;includes&gt;</text></g><!--MD5=[dce773dfc3647d920a88018da7d23089]
link consAccess to login--><g id="link_consAccess_login"><path d="M265.4,264.21 C322.29,246.27 409.01,218.91 461.61,202.32 " fill="none" id="consAccess-to-login" style="stroke:#181818;stroke-width:1.0;stroke-dasharray:7.0,7.0;"/><polygon fill="#181818" points="466.59,200.75,456.8047,199.6332,461.8201,202.2495,459.2039,207.265,466.59,200.75" style="stroke:#181818;stroke-width:1.0;"/><text fill="#000000" font-family="sans-serif" font-size="13" lengthAdjust="spacing" textLength="74" x="336" y="215.0669">&lt;includes&gt;</text></g><!--MD5=[703747f5edb75d3c69c16a8417c99979]
@startuml
    left to right direction
    actor admin as ad
    rectangle "Smart Home"{
        usecase "update System" as update
        usecase "Consulter Compte" as consCompt
        usecase bloquer
        usecase debloquer
        usecase "s'authentifié" as login
        usecase attribuer
        usecase "consulter droit d'acces" as consAccess
        usecase limiter
        usecase attribuer
    }
    ad - -> update
    ad - -> consCompt
    ad - -> consAccess
    consCompt <|- - bloquer 
    consCompt <|- - debloquer 
    consAccess <|- - attribuer  
    consAccess <|- - limiter  
    update .down.> login : <includes>
    consCompt .down.> login : <includes>
    consAccess .down.> login : <includes>
@enduml

PlantUML version 1.2022.7(Mon Aug 22 18:01:30 CET 2022)
(GPL source distribution)
Java Runtime: OpenJDK Runtime Environment
JVM: OpenJDK 64-Bit Server VM
Default Encoding: UTF-8
Language: en
Country: US
--></g></svg>