<?xml version="1.0" encoding="UTF-8" standalone="no"?><svg xmlns="http://www.w3.org/2000/svg" xmlns:xlink="http://www.w3.org/1999/xlink" contentStyleType="text/css" height="466px" preserveAspectRatio="none" style="width:570px;height:466px;background:#FFFFFF;" version="1.1" viewBox="0 0 570 466" width="570px" zoomAndPan="magnify"><defs/><g><!--MD5=[8eb62d8c178553d84595041b03834873]
cluster Smart Home--><g id="cluster_Smart Home"><rect fill="none" height="453" rx="2.5" ry="2.5" style="stroke:#181818;stroke-width:1.0;" width="473" x="91" y="7"/><text fill="#000000" font-family="sans-serif" font-size="14" font-weight="bold" lengthAdjust="spacing" textLength="84" x="285.5" y="23.5332">Smart Home</text></g><g id="elem_update"><ellipse cx="198.2859" cy="234.8572" fill="#F1F1F1" rx="72.2859" ry="16.8572" style="stroke:#181818;stroke-width:0.5;"/><text fill="#000000" font-family="sans-serif" font-size="14" lengthAdjust="spacing" textLength="94" x="148.2859" y="239.3738">update System</text></g><g id="elem_consCompt"><ellipse cx="198.3789" cy="141.8758" fill="#F1F1F1" rx="79.8789" ry="18.3758" style="stroke:#181818;stroke-width:0.5;"/><text fill="#000000" font-family="sans-serif" font-size="14" lengthAdjust="spacing" textLength="114" x="140.3373" y="145.9024">Consulter Compte</text></g><g id="elem_bloquer"><ellipse cx="481.9598" cy="125.9615" fill="#F1F1F1" rx="45.4598" ry="15.4615" style="stroke:#181818;stroke-width:0.5;"/><text fill="#000000" font-family="sans-serif" font-size="14" lengthAdjust="spacing" textLength="48" x="456.7695" y="130.0394">bloquer</text></g><g id="elem_debloquer"><ellipse cx="482.2132" cy="60.0613" fill="#F1F1F1" rx="57.2132" ry="15.5613" style="stroke:#181818;stroke-width:0.5;"/><text fill="#000000" font-family="sans-serif" font-size="14" lengthAdjust="spacing" textLength="64" x="447.2132" y="64.5779">debloquer</text></g><g id="elem_login"><ellipse cx="482.08" cy="235.1227" fill="#F1F1F1" rx="66.08" ry="15.6227" style="stroke:#181818;stroke-width:0.5;"/><text fill="#000000" font-family="sans-serif" font-size="14" lengthAdjust="spacing" textLength="76" x="441.08" y="239.6393">s'authentifié</text></g><g id="elem_attribuer"><ellipse cx="482.0928" cy="346.9872" fill="#F1F1F1" rx="49.0928" ry="15.4872" style="stroke:#181818;stroke-width:0.5;"/><text fill="#000000" font-family="sans-serif" font-size="14" lengthAdjust="spacing" textLength="53" x="453.1382" y="351.3807">attribuer</text></g><g id="elem_consAccess"><ellipse cx="198.6965" cy="343.2393" fill="#F1F1F1" rx="91.6965" ry="20.7393" style="stroke:#181818;stroke-width:0.5;"/><text fill="#000000" font-family="sans-serif" font-size="14" lengthAdjust="spacing" textLength="142" x="127.6965" y="346.9678">consulter droit d'acces</text></g><g id="elem_limiter"><ellipse cx="482.1482" cy="412.9517" fill="#F1F1F1" rx="37.6482" ry="15.4517" style="stroke:#181818;stroke-width:0.5;"/><text fill="#000000" font-family="sans-serif" font-size="14" lengthAdjust="spacing" textLength="37" x="463.6482" y="416.6802">limiter</text></g><!--MD5=[a2a1127a9e0c3d5a4af797120761d109]
entity ad--><g id="elem_ad"><ellipse cx="25" cy="245.5" fill="#F1F1F1" rx="8" ry="8" style="stroke:#181818;stroke-width:0.5;"/><path d="M25,253.5 L25,280.5 M12,261.5 L38,261.5 M25,280.5 L12,295.5 M25,280.5 L38,295.5 " fill="none" style="stroke:#181818;stroke-width:0.5;"/><text fill="#000000" font-family="sans-serif" font-size="14" lengthAdjust="spacing" textLength="38" x="6" y="311.5332">admin</text></g><!--MD5=[d78e95e48f188c06631e62a916db479a]
link ad to update--><g id="link_ad_update"><path d="M44.03,271.69 C67.14,266.16 108.28,256.33 142.16,248.23 " fill="none" id="ad-to-update" style="stroke:#181818;stroke-width:1.0;"/><polygon fill="#181818" points="147.1,247.05,137.418,245.2446,142.2361,248.2087,139.272,253.0268,147.1,247.05" style="stroke:#181818;stroke-width:1.0;"/></g><!--MD5=[479ee56ac5d61d5c3f8081e111e610da]
link ad to consCompt--><g id="link_ad_consCompt"><path d="M44.08,245.59 C54.14,230.51 67.71,212.83 83,200 C103.08,183.15 128.88,169.54 150.91,159.75 " fill="none" id="ad-to-consCompt" style="stroke:#181818;stroke-width:1.0;"/><polygon fill="#181818" points="155.55,157.72,145.7014,157.6515,150.9669,159.7188,148.8995,164.9844,155.55,157.72" style="stroke:#181818;stroke-width:1.0;"/></g><!--MD5=[b3a4c8fcea300889662a7991258ebca4]
link ad to consAccess--><g id="link_ad_consAccess"><path d="M44.31,286.9 C53.11,291.89 63.91,297.63 74,302 C94.15,310.72 116.81,318.73 137.16,325.31 " fill="none" id="ad-to-consAccess" style="stroke:#181818;stroke-width:1.0;"/><polygon fill="#181818" points="142.01,326.87,134.6651,320.3085,137.2497,325.3404,132.2178,327.925,142.01,326.87" style="stroke:#181818;stroke-width:1.0;"/></g><!--MD5=[f3cd1d8406d1a35a43b9a737f755b78a]
reverse link consCompt to bloquer--><g id="link_consCompt_bloquer"><path d="M281.61,137.33 C332.39,134.45 395.57,130.86 437.03,128.5 " fill="none" id="consCompt-backto-bloquer" style="stroke:#181818;stroke-width:1.0;stroke-dasharray:7.0,7.0;"/><polygon fill="#181818" points="276.42,137.63,285.6341,141.1085,281.4118,137.3439,285.1764,133.1216,276.42,137.63" style="stroke:#181818;stroke-width:1.0;"/><text fill="#000000" font-family="sans-serif" font-size="13" lengthAdjust="spacing" textLength="62" x="322" y="128.4951">&lt;extends&gt;</text></g><!--MD5=[5d6326cbf495c1ca86872227e6cad38a]
reverse link consCompt to debloquer--><g id="link_consCompt_debloquer"><path d="M252.8,125.93 C273.73,119.65 297.98,112.44 320,106 C361.58,93.85 409.29,80.26 441.92,71.02 " fill="none" id="consCompt-backto-debloquer" style="stroke:#181818;stroke-width:1.0;stroke-dasharray:7.0,7.0;"/><polygon fill="#181818" points="247.83,127.42,257.6005,128.6598,252.6183,125.9806,255.2975,120.9985,247.83,127.42" style="stroke:#181818;stroke-width:1.0;"/><text fill="#000000" font-family="sans-serif" font-size="13" lengthAdjust="spacing" textLength="62" x="322" y="85.4951">&lt;extends&gt;</text></g><!--MD5=[a56544051e2c930bbc848e442f78eaba]
reverse link consAccess to attribuer--><g id="link_consAccess_attribuer"><path d="M286.86,351.92 C298,352.78 309.26,353.51 320,354 C349.3,355.33 356.69,355.08 386,354 C401.87,353.42 419.19,352.29 434.65,351.1 " fill="none" id="consAccess-backto-attribuer" style="stroke:#181818;stroke-width:1.0;stroke-dasharray:7.0,7.0;"/><polygon fill="#181818" points="281.75,351.51,290.4013,356.2169,286.734,351.9099,291.0411,348.2426,281.75,351.51" style="stroke:#181818;stroke-width:1.0;"/><text fill="#000000" font-family="sans-serif" font-size="13" lengthAdjust="spacing" textLength="62" x="322" y="350.4951">&lt;extends&gt;</text></g><!--MD5=[b7d3d7e55f90e59660ff795b5c9ac481]
reverse link consAccess to limiter--><g id="link_consAccess_limiter"><path d="M254.42,361.71 C274.87,368.31 298.36,375.46 320,381 C363.34,392.11 414.08,401.63 446.83,407.33 " fill="none" id="consAccess-backto-limiter" style="stroke:#181818;stroke-width:1.0;stroke-dasharray:7.0,7.0;"/><polygon fill="#181818" points="249.57,360.14,256.897,366.7214,254.3261,361.6825,259.365,359.1117,249.57,360.14" style="stroke:#181818;stroke-width:1.0;"/><text fill="#000000" font-family="sans-serif" font-size="13" lengthAdjust="spacing" textLength="62" x="322" y="377.4951">&lt;extends&gt;</text></g><!--MD5=[78a21efba5acd9f5370b711c2fbebce5]
link update to login--><g id="link_update_login"><path d="M270.79,237.21 C305.54,238.02 347.96,238.6 386,238 C394.2,237.87 402.79,237.68 411.32,237.45 " fill="none" id="update-to-login" style="stroke:#181818;stroke-width:1.0;stroke-dasharray:7.0,7.0;"/><polygon fill="#181818" points="416.62,237.31,407.5091,233.5694,411.6221,237.4532,407.7383,241.5661,416.62,237.31" style="stroke:#181818;stroke-width:1.0;"/><text fill="#000000" font-family="sans-serif" font-size="13" lengthAdjust="spacing" textLength="64" x="321" y="234.4951">&lt;includes&gt;</text></g><!--MD5=[d4162209d1a94961b517f8df65b7b9d9]
link consCompt to login--><g id="link_consCompt_login"><path d="M245.35,157.15 C298.63,174.75 385.86,203.57 437.92,220.77 " fill="none" id="consCompt-to-login" style="stroke:#181818;stroke-width:1.0;stroke-dasharray:7.0,7.0;"/><polygon fill="#181818" points="442.85,222.4,435.5648,215.7724,438.1037,220.8274,433.0487,223.3664,442.85,222.4" style="stroke:#181818;stroke-width:1.0;"/><text fill="#000000" font-family="sans-serif" font-size="13" lengthAdjust="spacing" textLength="64" x="321" y="179.4951">&lt;includes&gt;</text></g><!--MD5=[dce773dfc3647d920a88018da7d23089]
link consAccess to login--><g id="link_consAccess_login"><path d="M245.67,325.29 C300.37,304.3 390.54,269.71 441.93,249.99 " fill="none" id="consAccess-to-login" style="stroke:#181818;stroke-width:1.0;stroke-dasharray:7.0,7.0;"/><polygon fill="#181818" points="446.78,248.13,436.9432,247.6436,442.1162,249.9326,439.8273,255.1056,446.78,248.13" style="stroke:#181818;stroke-width:1.0;"/><text fill="#000000" font-family="sans-serif" font-size="13" lengthAdjust="spacing" textLength="64" x="321" y="270.4951">&lt;includes&gt;</text></g><!--MD5=[8a445fa0fdd9aeba4b5aaff13f956581]
@startuml
    left to right direction
    actor admin as ad
    rectangle "Smart Home"{
        usecase "update System" as update
        usecase "Consulter Compte" as consCompt
        usecase bloquer
        usecase debloquer
        usecase "s'authentifié" as login
        usecase attribuer
        usecase "consulter droit d'acces" as consAccess
        usecase limiter
        usecase attribuer
    }
    ad - -> update
    ad - -> consCompt
    ad - -> consAccess
    consCompt <.down. bloquer : <extends>
    consCompt <.down. debloquer : <extends>
    consAccess <.down. attribuer : <extends>
    consAccess <.down. limiter : <extends>
    update .down.> login : <includes>
    consCompt .down.> login : <includes>
    consAccess .down.> login : <includes>
@enduml

PlantUML version 1.2022.7(Mon Aug 22 19:01:30 CEST 2022)
(GPL source distribution)
Java Runtime: Java(TM) SE Runtime Environment
JVM: Java HotSpot(TM) 64-Bit Server VM
Default Encoding: Cp1252
Language: fr
Country: FR
--></g></svg>