<?xml version="1.0" encoding="UTF-8" standalone="no"?><svg xmlns="http://www.w3.org/2000/svg" xmlns:xlink="http://www.w3.org/1999/xlink" contentStyleType="text/css" height="572px" preserveAspectRatio="none" style="width:874px;height:572px;background:#FFFFFF;" version="1.1" viewBox="0 0 874 572" width="874px" zoomAndPan="magnify"><defs/><g><!--MD5=[8eb62d8c178553d84595041b03834873]
cluster Smart Home--><g id="cluster_Smart Home"><rect fill="none" height="559" rx="2.5" ry="2.5" style="stroke:#181818;stroke-width:1.0;" width="764" x="104" y="7"/><text fill="#000000" font-family="sans-serif" font-size="14" font-weight="bold" lengthAdjust="spacing" textLength="84" x="444" y="23.5332">Smart Home</text></g><g id="elem_geq"><ellipse cx="200.2827" cy="212.9565" fill="#F1F1F1" rx="80.2827" ry="18.4565" style="stroke:#181818;stroke-width:0.5;"/><text fill="#000000" font-family="sans-serif" font-size="14" lengthAdjust="spacing" textLength="115" x="141.9192" y="216.9341">Gerer équipement</text></g><g id="elem_manageCams"><ellipse cx="200.7113" cy="376.1423" fill="#F1F1F1" rx="71.2113" ry="16.6423" style="stroke:#181818;stroke-width:0.5;"/><text fill="#000000" font-family="sans-serif" font-size="14" lengthAdjust="spacing" textLength="91" x="152.2113" y="380.6589">Gerer Camera</text></g><g id="elem_consultLive"><ellipse cx="531.035" cy="528.807" fill="#F1F1F1" rx="89.535" ry="20.307" style="stroke:#181818;stroke-width:0.5;"/><text fill="#000000" font-family="sans-serif" font-size="14" lengthAdjust="spacing" textLength="137" x="462.535" y="532.5355">Consulter live camera</text></g><g id="elem_consultHistory"><ellipse cx="531.1384" cy="446.1277" fill="#F1F1F1" rx="126.1384" ry="27.6277" style="stroke:#181818;stroke-width:0.5;"/><text fill="#000000" font-family="sans-serif" font-size="14" lengthAdjust="spacing" textLength="218" x="422.1384" y="449.8562">Consulter l'historique des cameras</text></g><g id="elem_activer"><ellipse cx="531.1838" cy="278.9517" fill="#F1F1F1" rx="41.1838" ry="15.4517" style="stroke:#181818;stroke-width:0.5;"/><text fill="#000000" font-family="sans-serif" font-size="14" lengthAdjust="spacing" textLength="42" x="510.1838" y="282.6802">activer</text></g><g id="elem_desactiver"><ellipse cx="530.952" cy="213.0671" fill="#F1F1F1" rx="57.952" ry="15.5671" style="stroke:#181818;stroke-width:0.5;"/><text fill="#000000" font-family="sans-serif" font-size="14" lengthAdjust="spacing" textLength="65" x="495.452" y="217.5837">desactiver</text></g><g id="elem_modifier"><ellipse cx="530.9051" cy="146.97" fill="#F1F1F1" rx="46.9051" ry="15.47" style="stroke:#181818;stroke-width:0.5;"/><text fill="#000000" font-family="sans-serif" font-size="14" lengthAdjust="spacing" textLength="50" x="504.2227" y="151.1764">modifier</text></g><g id="elem_login"><ellipse cx="784.7537" cy="203.7507" fill="#F1F1F1" rx="66.7537" ry="15.7507" style="stroke:#181818;stroke-width:0.5;"/><text fill="#000000" font-family="sans-serif" font-size="14" lengthAdjust="spacing" textLength="78" x="742.7537" y="208.2673">S'authentifié</text></g><!--MD5=[304f583f0b15969b823fd55ea2d05389]
entity hab--><g id="elem_hab"><ellipse cx="31.5" cy="256.5" fill="#F1F1F1" rx="8" ry="8" style="stroke:#181818;stroke-width:0.5;"/><path d="M31.5,264.5 L31.5,291.5 M18.5,272.5 L44.5,272.5 M31.5,291.5 L18.5,306.5 M31.5,291.5 L44.5,306.5 " fill="none" style="stroke:#181818;stroke-width:0.5;"/><text fill="#000000" font-family="sans-serif" font-size="14" lengthAdjust="spacing" textLength="51" x="6" y="322.5332">habitant</text></g><!--MD5=[e405805d1e2b0ab46b908fc287c2b699]
link hab to manageCams--><g id="link_hab_manageCams"><path d="M57.14,300.13 C86.11,315.57 134.31,341.26 166.49,358.41 " fill="none" id="hab-to-manageCams" style="stroke:#181818;stroke-width:1.0;"/><polygon fill="#181818" points="171.12,360.88,165.0651,353.1122,166.7094,358.5248,161.2968,360.1692,171.12,360.88" style="stroke:#181818;stroke-width:1.0;"/></g><!--MD5=[eaf52bfedca67e6ee4b3c09cafe920e9]
link hab to geq--><g id="link_hab_geq"><path d="M57.14,276.08 C83.6,264.36 126.11,245.52 157.8,231.48 " fill="none" id="hab-to-geq" style="stroke:#181818;stroke-width:1.0;"/><polygon fill="#181818" points="162.39,229.44,152.5411,229.4343,157.8198,231.468,155.786,236.7467,162.39,229.44" style="stroke:#181818;stroke-width:1.0;"/></g><!--MD5=[835a5ed08c375e076b8cdc7405426563]
reverse link geq to desactiver--><g id="link_geq_desactiver"><path d="M286.28,213 C344.9,213 421.31,213 472.83,213 " fill="none" id="geq-backto-desactiver" style="stroke:#181818;stroke-width:1.0;stroke-dasharray:7.0,7.0;"/><polygon fill="#181818" points="281.02,213,290.02,217,286.02,213,290.02,209,281.02,213" style="stroke:#181818;stroke-width:1.0;"/><text fill="#000000" font-family="sans-serif" font-size="13" lengthAdjust="spacing" textLength="62" x="312" y="209.4951">&lt;extends&gt;</text></g><!--MD5=[a46cd0672e3b72710fa87916f106f3b5]
reverse link geq to activer--><g id="link_geq_activer"><path d="M260.94,227.71 C277.14,231.56 294.71,235.58 311,239 C374.74,252.38 449.45,265.47 493.07,272.86 " fill="none" id="geq-backto-activer" style="stroke:#181818;stroke-width:1.0;stroke-dasharray:7.0,7.0;"/><polygon fill="#181818" points="255.96,226.53,263.7919,232.5017,260.8246,227.6855,265.6408,224.7182,255.96,226.53" style="stroke:#181818;stroke-width:1.0;"/><text fill="#000000" font-family="sans-serif" font-size="13" lengthAdjust="spacing" textLength="62" x="312" y="235.4951">&lt;extends&gt;</text></g><!--MD5=[6c6c3e5c81b88b6b0b31dfeed91fb294]
reverse link geq to modifier--><g id="link_geq_modifier"><path d="M265.33,199.45 C280.3,196.31 296.21,193.01 311,190 C373.46,177.31 446.08,163.17 490.01,154.69 " fill="none" id="geq-backto-modifier" style="stroke:#181818;stroke-width:1.0;stroke-dasharray:7.0,7.0;"/><polygon fill="#181818" points="260.29,200.5,269.9198,202.5658,265.1834,199.4728,268.2763,194.7364,260.29,200.5" style="stroke:#181818;stroke-width:1.0;"/><text fill="#000000" font-family="sans-serif" font-size="13" lengthAdjust="spacing" textLength="62" x="312" y="174.4951">&lt;extends&gt;</text></g><!--MD5=[d7500e27698c7249181fd173783967a1]
reverse link manageCams to consultLive--><g id="link_manageCams_consultLive"><path d="M229.56,394.49 C267.9,419.14 339.4,462.9 405,491 C425.85,499.93 449.48,507.68 470.55,513.82 " fill="none" id="manageCams-backto-consultLive" style="stroke:#181818;stroke-width:1.0;stroke-dasharray:7.0,7.0;"/><polygon fill="#181818" points="225.05,391.59,230.4576,399.8215,229.2559,394.2938,234.7836,393.0921,225.05,391.59" style="stroke:#181818;stroke-width:1.0;"/><text fill="#000000" font-family="sans-serif" font-size="13" lengthAdjust="spacing" textLength="62" x="312" y="442.4951">&lt;extends&gt;</text></g><!--MD5=[ac5dec77f597a4a391e48f9340985f8c]
reverse link manageCams to consultHistory--><g id="link_manageCams_consultHistory"><path d="M258.62,388.17 C308.64,398.83 382.18,414.5 440.09,426.84 " fill="none" id="manageCams-backto-consultHistory" style="stroke:#181818;stroke-width:1.0;stroke-dasharray:7.0,7.0;"/><polygon fill="#181818" points="253.55,387.09,261.5202,392.8759,258.4405,388.1308,263.1855,385.0511,253.55,387.09" style="stroke:#181818;stroke-width:1.0;"/><text fill="#000000" font-family="sans-serif" font-size="13" lengthAdjust="spacing" textLength="62" x="312" y="397.4951">&lt;extends&gt;</text></g><!--MD5=[7002ca9bda8252f3a5bf50d6190acce3]
link geq to login--><g id="link_geq_login"><path d="M226.61,195.37 C263.58,170.72 335.77,127.46 405,114 C514.94,92.62 550.28,80.02 657,114 C700.57,127.87 742.03,162.73 765.13,184.77 " fill="none" id="geq-to-login" style="stroke:#181818;stroke-width:1.0;stroke-dasharray:7.0,7.0;"/><polygon fill="#181818" points="768.95,188.45,765.2479,179.3234,765.3508,184.9793,759.6949,185.0822,768.95,188.45" style="stroke:#181818;stroke-width:1.0;"/><text fill="#000000" font-family="sans-serif" font-size="13" lengthAdjust="spacing" textLength="64" x="499" y="89.4951">&lt;includes&gt;</text></g><!--MD5=[a612e2b41248c2d58ecb1cde764686e6]
link manageCams to login--><g id="link_manageCams_login"><path d="M271.39,374.6 C381.68,371.46 590.42,361.43 657,330 C707.65,306.09 749.97,253.33 770.55,224.24 " fill="none" id="manageCams-to-login" style="stroke:#181818;stroke-width:1.0;stroke-dasharray:7.0,7.0;"/><polygon fill="#181818" points="773.67,219.78,765.2426,224.877,770.8113,223.8822,771.8061,229.4509,773.67,219.78" style="stroke:#181818;stroke-width:1.0;"/><text fill="#000000" font-family="sans-serif" font-size="13" lengthAdjust="spacing" textLength="64" x="499" y="326.4951">&lt;includes&gt;</text></g><!--MD5=[b1e0c3c3ea74dc61acfb9bf3c5d3db4d]
@startuml
    left to right direction
        actor habitant as hab
        rectangle "Smart Home"{
            usecase "Gerer équipement" as geq
            usecase "Gerer Camera" as manageCams
            usecase "Consulter live camera" as consultLive
            usecase "Consulter l'historique des cameras" as consultHistory
            usecase activer
            usecase desactiver
            usecase modifier 
            usecase "S'authentifié" as login 
        }
        hab - -> manageCams
        hab - -> geq
        geq <.down. desactiver : <extends>
        geq <.down. activer : <extends>
        geq <.down. modifier : <extends>
        manageCams <.down. consultLive : <extends>
        manageCams <.down. consultHistory : <extends>
        geq .down..> login : <includes>
        manageCams .down..> login : <includes>
@enduml

PlantUML version 1.2022.7(Mon Aug 22 19:01:30 CEST 2022)
(GPL source distribution)
Java Runtime: Java(TM) SE Runtime Environment
JVM: Java HotSpot(TM) 64-Bit Server VM
Default Encoding: Cp1252
Language: fr
Country: FR
--></g></svg>