<?xml version="1.0" encoding="UTF-8" standalone="no"?><svg xmlns="http://www.w3.org/2000/svg" xmlns:xlink="http://www.w3.org/1999/xlink" contentStyleType="text/css" height="570px" preserveAspectRatio="none" style="width:858px;height:570px;background:#FFFFFF;" version="1.1" viewBox="0 0 858 570" width="858px" zoomAndPan="magnify"><defs/><g><!--MD5=[8eb62d8c178553d84595041b03834873]
cluster Smart Home--><g id="cluster_Smart Home"><rect fill="none" height="557" rx="2.5" ry="2.5" style="stroke:#181818;stroke-width:1.0;" width="743" x="109" y="7"/><text fill="#000000" font-family="sans-serif" font-size="14" font-weight="bold" lengthAdjust="spacing" textLength="96" x="432.5" y="21.9951">Smart Home</text></g><g id="elem_geq"><ellipse cx="217.5656" cy="209.1131" fill="#F1F1F1" rx="83.5656" ry="19.1131" style="stroke:#181818;stroke-width:0.5;"/><text fill="#000000" font-family="sans-serif" font-size="14" lengthAdjust="spacing" textLength="127" x="153.6623" y="212.0974">Gerer équipement</text></g><g id="elem_manageCams"><ellipse cx="217.6781" cy="370.1356" fill="#F1F1F1" rx="71.1781" ry="16.6356" style="stroke:#181818;stroke-width:0.5;"/><text fill="#000000" font-family="sans-serif" font-size="14" lengthAdjust="spacing" textLength="96" x="166.6781" y="373.8832">Gerer Camera</text></g><g id="elem_consultLive"><ellipse cx="505.7771" cy="526.9554" fill="#F1F1F1" rx="92.7771" ry="20.9554" style="stroke:#181818;stroke-width:0.5;"/><text fill="#000000" font-family="sans-serif" font-size="14" lengthAdjust="spacing" textLength="148" x="431.7771" y="529.8021">Consulter live camera</text></g><g id="elem_consultHistory"><ellipse cx="505.9476" cy="440.8895" fill="#F1F1F1" rx="134.9476" ry="29.3895" style="stroke:#181818;stroke-width:0.5;"/><text fill="#000000" font-family="sans-serif" font-size="14" lengthAdjust="spacing" textLength="239" x="386.4476" y="443.7362">Consulter l'historique des cameras</text></g><g id="elem_activer"><ellipse cx="506.1452" cy="274.1209" fill="#F1F1F1" rx="43.6452" ry="14.6209" style="stroke:#181818;stroke-width:0.5;"/><text fill="#000000" font-family="sans-serif" font-size="14" lengthAdjust="spacing" textLength="45" x="480.6452" y="277.8684">activer</text></g><g id="elem_desactiver"><ellipse cx="505.9096" cy="208.8819" fill="#F1F1F1" rx="62.4096" ry="14.8819" style="stroke:#181818;stroke-width:0.5;"/><text fill="#000000" font-family="sans-serif" font-size="14" lengthAdjust="spacing" textLength="71" x="467.4096" y="212.6295">desactiver</text></g><g id="elem_modifier"><ellipse cx="506.1079" cy="144.2016" fill="#F1F1F1" rx="51.1079" ry="14.7016" style="stroke:#181818;stroke-width:0.5;"/><text fill="#000000" font-family="sans-serif" font-size="14" lengthAdjust="spacing" textLength="55" x="475.6079" y="147.9492">modifier</text></g><g id="elem_consultNotif"><ellipse cx="217.3318" cy="442.8664" fill="#F1F1F1" rx="92.3318" ry="20.8664" style="stroke:#181818;stroke-width:0.5;"/><text fill="#000000" font-family="sans-serif" font-size="14" lengthAdjust="spacing" textLength="147" x="143.8318" y="445.713">Consulter Notification</text></g><g id="elem_login"><ellipse cx="769.1678" cy="199.8336" fill="#F1F1F1" rx="67.1678" ry="15.8336" style="stroke:#181818;stroke-width:0.5;"/><text fill="#000000" font-family="sans-serif" font-size="14" lengthAdjust="spacing" textLength="85" x="723.6678" y="203.5811">S'authentifié</text></g><!--MD5=[304f583f0b15969b823fd55ea2d05389]
entity hab--><g id="elem_hab"><ellipse cx="34" cy="340.5" fill="#F1F1F1" rx="8" ry="8" style="stroke:#181818;stroke-width:0.5;"/><path d="M34,348.5 L34,375.5 M21,356.5 L47,356.5 M34,375.5 L21,390.5 M34,375.5 L47,390.5 " fill="none" style="stroke:#181818;stroke-width:0.5;"/><text fill="#000000" font-family="sans-serif" font-size="14" lengthAdjust="spacing" textLength="56" x="6" y="404.9951">habitant</text></g><!--MD5=[e405805d1e2b0ab46b908fc287c2b699]
link hab to manageCams--><g id="link_hab_manageCams"><path d="M62.17,370 C83.12,370 113.15,370 141.16,370 " fill="none" id="hab-to-manageCams" style="stroke:#181818;stroke-width:1.0;"/><polygon fill="#181818" points="146.36,370,137.36,366,141.36,370,137.36,374,146.36,370" style="stroke:#181818;stroke-width:1.0;"/></g><!--MD5=[eaf52bfedca67e6ee4b3c09cafe920e9]
link hab to geq--><g id="link_hab_geq"><path d="M62.17,345.9 C97.24,314.79 157.75,261.11 191.65,231.04 " fill="none" id="hab-to-geq" style="stroke:#181818;stroke-width:1.0;"/><polygon fill="#181818" points="195.65,227.5,186.2659,230.4896,191.913,230.8218,191.5808,236.4689,195.65,227.5" style="stroke:#181818;stroke-width:1.0;"/></g><!--MD5=[6b8c7e8d01f53dd627378e2a778782ff]
link hab to consultNotif--><g id="link_hab_consultNotif"><path d="M62.18,385.17 C73.92,391.41 87.94,398.47 101,404 C118.64,411.47 138.23,418.53 156.21,424.54 " fill="none" id="hab-to-consultNotif" style="stroke:#181818;stroke-width:1.0;"/><polygon fill="#181818" points="161.23,426.21,153.9448,419.5824,156.4837,424.6374,151.4287,427.1764,161.23,426.21" style="stroke:#181818;stroke-width:1.0;"/></g><!--MD5=[835a5ed08c375e076b8cdc7405426563]
reverse link geq to desactiver--><g id="link_geq_desactiver"><path d="M321.55,209 C362.3,209 407.78,209 443.26,209 " fill="none" id="geq-backto-desactiver" style="stroke:#181818;stroke-width:1.0;"/><polygon fill="none" points="321.37,216,301.37,209,321.37,202,321.37,216" style="stroke:#181818;stroke-width:1.0;"/></g><!--MD5=[a46cd0672e3b72710fa87916f106f3b5]
reverse link geq to activer--><g id="link_geq_activer"><path d="M296.7,226.74 C353.08,239.53 426.53,256.2 469.45,265.93 " fill="none" id="geq-backto-activer" style="stroke:#181818;stroke-width:1.0;"/><polygon fill="none" points="295.12,233.56,277.17,222.31,298.22,219.91,295.12,233.56" style="stroke:#181818;stroke-width:1.0;"/></g><!--MD5=[6c6c3e5c81b88b6b0b31dfeed91fb294]
reverse link geq to modifier--><g id="link_geq_modifier"><path d="M296.9,191.21 C351.64,178.79 422.4,162.74 465.7,152.92 " fill="none" id="geq-backto-modifier" style="stroke:#181818;stroke-width:1.0;"/><polygon fill="none" points="298.22,198.09,277.17,195.69,295.12,184.44,298.22,198.09" style="stroke:#181818;stroke-width:1.0;"/></g><!--MD5=[d7500e27698c7249181fd173783967a1]
reverse link manageCams to consultLive--><g id="link_manageCams_consultLive"><path d="M285.38,389.53 C294.09,393.57 302.57,398.36 310,404 C346.75,431.89 333.26,461.46 371,488 C388.54,500.34 409.97,508.8 430.5,514.6 " fill="none" id="manageCams-backto-consultLive" style="stroke:#181818;stroke-width:1.0;"/><polygon fill="none" points="282.74,396.01,266.81,382.04,287.97,383.03,282.74,396.01" style="stroke:#181818;stroke-width:1.0;"/></g><!--MD5=[ac5dec77f597a4a391e48f9340985f8c]
reverse link manageCams to consultHistory--><g id="link_manageCams_consultHistory"><path d="M286.29,386.8 C325.04,396.4 374.1,408.56 415.93,418.93 " fill="none" id="manageCams-backto-consultHistory" style="stroke:#181818;stroke-width:1.0;"/><polygon fill="none" points="284.51,393.57,266.78,381.96,287.87,379.98,284.51,393.57" style="stroke:#181818;stroke-width:1.0;"/></g><!--MD5=[7002ca9bda8252f3a5bf50d6190acce3]
link geq to login--><g id="link_geq_login"><path d="M238.81,190.62 C266.37,167.04 318.28,127.35 371,112 C486.22,78.46 526.47,76.2 641,112 C684.08,125.47 725.4,159.25 748.65,180.82 " fill="none" id="geq-to-login" style="stroke:#181818;stroke-width:1.0;stroke-dasharray:7.0,7.0;"/><polygon fill="#181818" points="752.51,184.44,748.6977,175.3589,748.869,181.0132,743.2147,181.1845,752.51,184.44" style="stroke:#181818;stroke-width:1.0;"/><text fill="#000000" font-family="sans-serif" font-size="13" lengthAdjust="spacing" textLength="74" x="469" y="82.0669">&lt;includes&gt;</text></g><!--MD5=[a612e2b41248c2d58ecb1cde764686e6]
link manageCams to login--><g id="link_manageCams_login"><path d="M284.64,375.44 C370.95,379.77 524.65,377.79 641,323 C690.82,299.54 733.18,248.56 754.07,220.14 " fill="none" id="manageCams-to-login" style="stroke:#181818;stroke-width:1.0;stroke-dasharray:7.0,7.0;"/><polygon fill="#181818" points="757.24,215.79,748.7094,220.7124,754.2974,219.8324,755.1774,225.4204,757.24,215.79" style="stroke:#181818;stroke-width:1.0;"/><text fill="#000000" font-family="sans-serif" font-size="13" lengthAdjust="spacing" textLength="74" x="469" y="319.0669">&lt;includes&gt;</text></g><!--MD5=[03dcade95924e1e7179d74d576b4b9c9]
@startuml
    left to right direction
        actor habitant as hab
        rectangle "Smart Home"{
            usecase "Gerer équipement" as geq
            usecase "Gerer Camera" as manageCams
            usecase "Consulter live camera" as consultLive
            usecase "Consulter l'historique des cameras" as consultHistory
            usecase activer
            usecase desactiver
            usecase modifier 
            usecase "Consulter Notification" as consultNotif
            usecase "S'authentifié" as login 
        }
        hab - -> manageCams
        hab - -> geq
        hab - -> consultNotif
        geq <|- - desactiver
        geq <|- - activer
        geq <|- - modifier
        manageCams <|- - consultLive
        manageCams <|- - consultHistory
        geq .down..> login : <includes>
        manageCams .down..> login : <includes>
@enduml

PlantUML version 1.2022.7(Mon Aug 22 18:01:30 CET 2022)
(GPL source distribution)
Java Runtime: OpenJDK Runtime Environment
JVM: OpenJDK 64-Bit Server VM
Default Encoding: UTF-8
Language: en
Country: US
--></g></svg>