<?xml version="1.0" encoding="UTF-8" standalone="no"?><svg xmlns="http://www.w3.org/2000/svg" xmlns:xlink="http://www.w3.org/1999/xlink" contentStyleType="text/css" height="364px" preserveAspectRatio="none" style="width:391px;height:364px;background:#FFFFFF;" version="1.1" viewBox="0 0 391 364" width="391px" zoomAndPan="magnify"><defs/><g><!--MD5=[a2a1127a9e0c3d5a4af797120761d109]
entity ad--><g id="elem_ad"><ellipse cx="178" cy="14" fill="#F1F1F1" rx="8" ry="8" style="stroke:#181818;stroke-width:0.5;"/><path d="M178,22 L178,49 M165,30 L191,30 M178,49 L165,64 M178,49 L191,64 " fill="none" style="stroke:#181818;stroke-width:0.5;"/><text fill="#000000" font-family="sans-serif" font-size="14" lengthAdjust="spacing" textLength="38" x="159" y="80.0332">admin</text></g><!--MD5=[f26b11eb8de3600b24c56d19a52b3c65]
entity prop--><g id="elem_prop"><ellipse cx="352" cy="152" fill="#F1F1F1" rx="8" ry="8" style="stroke:#181818;stroke-width:0.5;"/><path d="M352,160 L352,187 M339,168 L365,168 M352,187 L339,202 M352,187 L365,202 " fill="none" style="stroke:#181818;stroke-width:0.5;"/><text fill="#000000" font-family="sans-serif" font-size="14" lengthAdjust="spacing" textLength="65" x="319.5" y="218.0332">proprietair</text></g><!--MD5=[304f583f0b15969b823fd55ea2d05389]
entity hab--><g id="elem_hab"><ellipse cx="258" cy="14" fill="#F1F1F1" rx="8" ry="8" style="stroke:#181818;stroke-width:0.5;"/><path d="M258,22 L258,49 M245,30 L271,30 M258,49 L245,64 M258,49 L271,64 " fill="none" style="stroke:#181818;stroke-width:0.5;"/><text fill="#000000" font-family="sans-serif" font-size="14" lengthAdjust="spacing" textLength="51" x="232.5" y="80.0332">habitant</text></g><!--MD5=[c38e6713c6fc97f85fa64829d8e1320f]
entity oc--><g id="elem_oc"><ellipse cx="218" cy="290" fill="#F1F1F1" rx="8" ry="8" style="stroke:#181818;stroke-width:0.5;"/><path d="M218,298 L218,325 M205,306 L231,306 M218,325 L205,340 M218,325 L231,340 " fill="none" style="stroke:#181818;stroke-width:0.5;"/><text fill="#000000" font-family="sans-serif" font-size="14" lengthAdjust="spacing" textLength="98" x="169" y="356.0332">objet connecter</text></g><!--MD5=[d4c4ca0c6539aad8b80246bd3465f857]
entity ads--><g id="elem_ads"><ellipse cx="61" cy="152" fill="#F1F1F1" rx="8" ry="8" style="stroke:#181818;stroke-width:0.5;"/><path d="M61,160 L61,187 M48,168 L74,168 M61,187 L48,202 M61,187 L74,202 " fill="none" style="stroke:#181818;stroke-width:0.5;"/><text fill="#000000" font-family="sans-serif" font-size="14" lengthAdjust="spacing" textLength="110" x="6" y="218.0332">agent de sécurité</text></g><g id="elem_sh"><ellipse cx="217.9254" cy="182.6851" fill="#F1F1F1" rx="66.4254" ry="15.6851" style="stroke:#181818;stroke-width:0.5;"/><text fill="#000000" font-family="sans-serif" font-size="14" lengthAdjust="spacing" textLength="77" x="176.4254" y="187.2017">Smart Home</text></g><!--MD5=[ee7068ae45c0b27c5d631d419f67dfc8]
link ad to sh--><g id="link_ad_sh"><path d="M189.25,83.75 C196.75,109.24 206.29,141.69 212.27,162.03 " fill="none" id="ad-to-sh" style="stroke:#181818;stroke-width:1.0;"/><polygon fill="#181818" points="213.71,166.93,215.0032,157.1664,212.2969,162.1339,207.3294,159.4275,213.71,166.93" style="stroke:#181818;stroke-width:1.0;"/></g><!--MD5=[dda4c19cade0e795f8ba27891fecdd67]
reverse link sh to prop--><g id="link_sh_prop"><path d="M289.89,182.5 C299.73,182.5 309.58,182.5 319.42,182.5 " fill="none" id="sh-backto-prop" style="stroke:#181818;stroke-width:1.0;"/><polygon fill="#181818" points="284.74,182.5,293.74,186.5,289.74,182.5,293.74,178.5,284.74,182.5" style="stroke:#181818;stroke-width:1.0;"/></g><!--MD5=[28e32217ffed0653318df1909a9abf74]
link hab to sh--><g id="link_hab_sh"><path d="M246.75,83.75 C239.25,109.24 229.71,141.69 223.73,162.03 " fill="none" id="hab-to-sh" style="stroke:#181818;stroke-width:1.0;"/><polygon fill="#181818" points="222.29,166.93,228.6706,159.4275,223.7031,162.1339,220.9968,157.1664,222.29,166.93" style="stroke:#181818;stroke-width:1.0;"/></g><!--MD5=[b28b38dcaf06d8c1f3c4f7d013b030f0]
link ads to sh--><g id="link_ads_sh"><path d="M116.2,182.5 C126.13,182.5 136.06,182.5 146,182.5 " fill="none" id="ads-to-sh" style="stroke:#181818;stroke-width:1.0;"/><polygon fill="#181818" points="151.19,182.5,142.19,178.5,146.19,182.5,142.19,186.5,151.19,182.5" style="stroke:#181818;stroke-width:1.0;"/></g><!--MD5=[fa19c478a7a380b725915f224e219584]
reverse link sh to oc--><g id="link_sh_oc"><path d="M218,203.23 C218,223.63 218,256.02 218,281.44 " fill="none" id="sh-backto-oc" style="stroke:#181818;stroke-width:1.0;"/><polygon fill="#181818" points="218,198.05,214,207.05,218,203.05,222,207.05,218,198.05" style="stroke:#181818;stroke-width:1.0;"/></g><!--MD5=[564f5d70373a61852c595e07af9583c3]
@startuml
    actor admin as ad
    actor proprietair as prop
    actor habitant as hab
    actor "objet connecter" as oc
    actor "agent de sécurité" as ads 
    (Smart Home) as sh
    ad -down-> sh
    prop - -left-> sh
    hab -down-> sh
    ads - -right-> sh
    oc -up-> sh
@enduml

PlantUML version 1.2022.7(Mon Aug 22 19:01:30 CEST 2022)
(GPL source distribution)
Java Runtime: Java(TM) SE Runtime Environment
JVM: Java HotSpot(TM) 64-Bit Server VM
Default Encoding: Cp1252
Language: fr
Country: FR
--></g></svg>